<svg width="240" height="60" viewBox="0 0 240 60" xmlns="http://www.w3.org/2000/svg">
  <!-- Background for preview (can be transparent) -->
  <defs>
    <style>
      @import url('https://fonts.googleapis.com/css2?family=Bebas+Neue&amp;display=swap');
      .logo-text { font-family: 'Bebas Neue', sans-serif; font-weight: 900; letter-spacing: 0.05em; }
      .brand-black { fill: currentColor; }
      .brand-orange { fill: #E84A0C; }
    </style>
  </defs>
  
  <!-- Bagel Icon -->
  <g transform="translate(10, 10)">
    <path d="M20 0C8.9543 0 0 8.9543 0 20C0 31.0457 8.9543 40 20 40C31.0457 40 40 31.0457 40 20C40 8.9543 31.0457 0 20 0ZM20 28C15.5817 28 12 24.4183 12 20C12 15.5817 15.5817 12 20 12C24.4183 12 28 15.5817 28 20C28 24.4183 24.4183 28 20 28Z" class="brand-orange"/>
    <!-- Seeds for detail -->
    <circle cx="12" cy="12" r="1.2" fill="#fff" opacity="0.8"/>
    <circle cx="28" cy="12" r="1.2" fill="#fff" opacity="0.8"/>
    <circle cx="10" cy="20" r="1.2" fill="#fff" opacity="0.8"/>
    <circle cx="30" cy="25" r="1.2" fill="#fff" opacity="0.8"/>
    <circle cx="20" cy="33" r="1.2" fill="#fff" opacity="0.8"/>
  </g>

  <!-- Text Logo -->
  <text x="65" y="42" font-size="36" class="logo-text">
    <tspan class="brand-black">BAGEL</tspan>
    <tspan class="brand-orange" dx="8">&amp;</tspan>
    <tspan class="brand-black" dx="8">CO.</tspan>
  </text>
</svg>
